<?xml version="1.0" encoding="UTF-8" standalone="no"?>
<!DOCTYPE svg PUBLIC "-//W3C//DTD SVG 1.1//EN"
 "http://www.w3.org/Graphics/SVG/1.1/DTD/svg11.dtd">
<!-- Generated by graphviz version 2.38.0 (20140413.2041)
 -->
<!-- Title: %3 Pages: 1 -->
<svg width="301pt" height="309pt"
 viewBox="0.00 0.00 300.94 308.76" xmlns="http://www.w3.org/2000/svg" xmlns:xlink="http://www.w3.org/1999/xlink">
<g id="graph0" class="graph" transform="scale(1 1) rotate(0) translate(4 304.759)">
<title>%3</title>
<polygon fill="white" stroke="none" points="-4,4 -4,-304.759 296.936,-304.759 296.936,4 -4,4"/>
<!-- 0 -->
<g id="node1" class="node"><title>0</title>
<ellipse fill="none" stroke="black" cx="146.468" cy="-242.07" rx="66.4361" ry="58.8803"/>
<text text-anchor="middle" x="146.468" y="-268.37" font-family="Times New Roman,serif" font-size="14.00">Mode 0</text>
<text text-anchor="middle" x="146.468" y="-253.37" font-family="Times New Roman,serif" font-size="14.00">&#45;&#45;&#45;&#45;&#45;&#45;&#45;&#45;&#45;&#45;</text>
<text text-anchor="middle" x="146.468" y="-238.37" font-family="Times New Roman,serif" font-size="14.00">t_min = 0</text>
<text text-anchor="middle" x="146.468" y="-223.37" font-family="Times New Roman,serif" font-size="14.00">t_max = 1000</text>
<text text-anchor="middle" x="146.468" y="-208.37" font-family="Times New Roman,serif" font-size="14.00">C = 50</text>
</g>
<!-- 1 -->
<g id="node2" class="node"><title>1</title>
<ellipse fill="none" stroke="black" cx="66.468" cy="-58.6899" rx="66.4361" ry="58.8803"/>
<text text-anchor="middle" x="66.468" y="-84.9899" font-family="Times New Roman,serif" font-size="14.00">Mode 1</text>
<text text-anchor="middle" x="66.468" y="-69.9899" font-family="Times New Roman,serif" font-size="14.00">&#45;&#45;&#45;&#45;&#45;&#45;&#45;&#45;&#45;&#45;</text>
<text text-anchor="middle" x="66.468" y="-54.9899" font-family="Times New Roman,serif" font-size="14.00">t_min = 0</text>
<text text-anchor="middle" x="66.468" y="-39.9899" font-family="Times New Roman,serif" font-size="14.00">t_max = 1000</text>
<text text-anchor="middle" x="66.468" y="-24.9899" font-family="Times New Roman,serif" font-size="14.00">C = 10</text>
</g>
<!-- 0&#45;&gt;1 -->
<g id="edge2" class="edge"><title>0&#45;&gt;1</title>
<path fill="none" stroke="black" d="M94.2356,-205.564C81.8304,-194.299 70.2411,-180.723 63.468,-165.38 58.2105,-153.47 56.0963,-140.047 55.7873,-126.864"/>
<polygon fill="black" stroke="black" points="59.2871,-126.891 55.8808,-116.859 52.2874,-126.826 59.2871,-126.891"/>
<text text-anchor="middle" x="79.968" y="-154.18" font-family="Times New Roman,serif" font-size="14.00">t = 5</text>
<text text-anchor="middle" x="79.968" y="-139.18" font-family="Times New Roman,serif" font-size="14.00">C = 0</text>
</g>
<!-- 2 -->
<g id="node3" class="node"><title>2</title>
<ellipse fill="none" stroke="black" cx="226.468" cy="-58.6899" rx="66.4361" ry="58.8803"/>
<text text-anchor="middle" x="226.468" y="-84.9899" font-family="Times New Roman,serif" font-size="14.00">Mode 2</text>
<text text-anchor="middle" x="226.468" y="-69.9899" font-family="Times New Roman,serif" font-size="14.00">&#45;&#45;&#45;&#45;&#45;&#45;&#45;&#45;&#45;&#45;</text>
<text text-anchor="middle" x="226.468" y="-54.9899" font-family="Times New Roman,serif" font-size="14.00">t_min = 0</text>
<text text-anchor="middle" x="226.468" y="-39.9899" font-family="Times New Roman,serif" font-size="14.00">t_max = 1000</text>
<text text-anchor="middle" x="226.468" y="-24.9899" font-family="Times New Roman,serif" font-size="14.00">C = 0</text>
</g>
<!-- 0&#45;&gt;2 -->
<g id="edge1" class="edge"><title>0&#45;&gt;2</title>
<path fill="none" stroke="black" d="M158.444,-184.194C162.809,-168.037 168.443,-150.683 175.468,-135.38 178.266,-129.284 181.533,-123.135 185.038,-117.117"/>
<polygon fill="black" stroke="black" points="188.122,-118.78 190.315,-108.415 182.137,-115.15 188.122,-118.78"/>
<text text-anchor="middle" x="192.468" y="-154.18" font-family="Times New Roman,serif" font-size="14.00">t = 15</text>
<text text-anchor="middle" x="192.468" y="-139.18" font-family="Times New Roman,serif" font-size="14.00">C = 0</text>
</g>
<!-- 1&#45;&gt;0 -->
<g id="edge3" class="edge"><title>1&#45;&gt;0</title>
<path fill="none" stroke="black" d="M90.3006,-113.724C99.172,-133.838 109.319,-156.844 118.526,-177.718"/>
<polygon fill="black" stroke="black" points="115.444,-179.404 122.682,-187.141 121.849,-176.579 115.444,-179.404"/>
<text text-anchor="middle" x="127.968" y="-154.18" font-family="Times New Roman,serif" font-size="14.00">t = 5</text>
<text text-anchor="middle" x="127.968" y="-139.18" font-family="Times New Roman,serif" font-size="14.00">C = 1</text>
</g>
<!-- 2&#45;&gt;0 -->
<g id="edge4" class="edge"><title>2&#45;&gt;0</title>
<path fill="none" stroke="black" d="M222.818,-117.539C220.316,-133.546 216.2,-150.577 209.468,-165.38 205.856,-173.322 201.181,-181.105 196.01,-188.478"/>
<polygon fill="black" stroke="black" points="192.889,-186.81 189.745,-196.928 198.512,-190.979 192.889,-186.81"/>
<text text-anchor="middle" x="242.468" y="-154.18" font-family="Times New Roman,serif" font-size="14.00">t = 10</text>
<text text-anchor="middle" x="242.468" y="-139.18" font-family="Times New Roman,serif" font-size="14.00">C = 100</text>
</g>
</g>
</svg>
